<?xml version="1.0" encoding="utf-8"?>
<!-- Generator: Adobe Illustrator 18.1.1, SVG Export Plug-In . SVG Version: 6.00 Build 0)  -->
<svg version="1.1" id="Layer_1" xmlns="http://www.w3.org/2000/svg" xmlns:xlink="http://www.w3.org/1999/xlink" x="0px" y="0px"
	 viewBox="0 0 436.3 12.5" enable-background="new 0 0 436.3 12.5" xml:space="preserve">
<g>
	<g>
		<path fill="#FFFFFF" d="M92.4,9.5c-0.2,0.6-0.5,1.2-0.9,1.6c-0.4,0.4-0.9,0.8-1.6,1c-0.6,0.2-1.4,0.4-2.2,0.4
			c-0.8,0-1.5-0.1-2.1-0.3c-0.6-0.2-1.1-0.5-1.5-0.8c-0.4-0.4-0.8-0.8-1-1.3c-0.3-0.5-0.5-1.1-0.6-1.7l3.3-0.9
			c0.2,0.7,0.5,1.2,0.7,1.6c0.3,0.3,0.7,0.5,1.3,0.5c0.5,0,0.9-0.2,1.2-0.5c0.3-0.3,0.4-0.8,0.4-1.4V0.3h3.4v7.1
			C92.7,8.2,92.6,8.9,92.4,9.5z"/>
		<path fill="#FFFFFF" d="M104.3,11.3c-0.7,0.7-1.9,1-3.4,1h-5.8v-12h5.8c1.5,0,2.6,0.3,3.2,0.8c0.7,0.5,1,1.3,1,2.3
			c0,0.7-0.1,1.2-0.4,1.5c-0.3,0.3-0.6,0.6-1,0.9c0.6,0.2,1,0.6,1.3,1c0.3,0.4,0.4,1,0.4,1.7C105.4,9.7,105,10.6,104.3,11.3z
			 M101.6,3.2c-0.1-0.2-0.4-0.3-0.8-0.3h-2.5v1.9h2.5c0.4,0,0.7-0.1,0.8-0.3c0.2-0.2,0.2-0.4,0.2-0.7C101.8,3.6,101.8,3.4,101.6,3.2
			z M101.8,7.6c-0.2-0.2-0.5-0.3-0.9-0.3h-2.6v2.3h2.6c0.4,0,0.7-0.1,0.9-0.3c0.2-0.2,0.3-0.5,0.3-0.9C102.1,8.1,102,7.9,101.8,7.6z
			"/>
		<path fill="#FFFFFF" d="M117.5,8.9c-0.3,0.8-0.7,1.4-1.2,1.9c-0.5,0.5-1.1,0.9-1.8,1.2c-0.7,0.3-1.4,0.4-2.2,0.4
			c-0.8,0-1.6-0.1-2.2-0.4c-0.7-0.3-1.3-0.7-1.8-1.2c-0.5-0.5-0.9-1.2-1.1-1.9c-0.3-0.8-0.4-1.7-0.4-2.7c0-1,0.1-1.9,0.4-2.7
			c0.3-0.8,0.7-1.4,1.1-1.9c0.5-0.5,1.1-0.9,1.8-1.2c0.7-0.3,1.4-0.4,2.2-0.4c0.8,0,1.6,0.1,2.2,0.4c0.7,0.3,1.3,0.7,1.7,1.2
			c0.5,0.5,0.9,1.2,1.1,1.9c0.3,0.8,0.4,1.7,0.4,2.7C117.9,7.3,117.8,8.2,117.5,8.9z M113.9,3.8C113.5,3.3,113,3,112.3,3
			s-1.2,0.3-1.6,0.8c-0.4,0.5-0.5,1.4-0.5,2.5c0,1.1,0.2,1.9,0.6,2.5c0.4,0.6,0.9,0.8,1.6,0.8c0.7,0,1.2-0.3,1.6-0.8
			c0.4-0.5,0.5-1.4,0.5-2.5C114.5,5.2,114.3,4.4,113.9,3.8z"/>
		<path fill="#FFFFFF" d="M128.8,10.4c-0.2,0.5-0.6,0.9-1,1.2c-0.4,0.3-1,0.5-1.6,0.7c-0.6,0.2-1.3,0.2-2,0.2c-1,0-1.9-0.1-2.8-0.4
			c-0.9-0.3-1.6-0.6-2.3-1l1.6-2.6c0.2,0.1,0.5,0.3,0.8,0.4c0.3,0.1,0.6,0.3,0.9,0.4c0.3,0.1,0.6,0.2,1,0.3c0.3,0.1,0.6,0.1,0.9,0.1
			c0.6,0,1-0.1,1.2-0.2c0.2-0.1,0.3-0.3,0.3-0.6c0-0.1,0-0.2-0.1-0.3c-0.1-0.1-0.2-0.2-0.3-0.3c-0.2-0.1-0.4-0.2-0.6-0.3
			c-0.3-0.1-0.6-0.2-1-0.3c-0.7-0.2-1.3-0.4-1.9-0.5c-0.5-0.2-1-0.4-1.3-0.7c-0.4-0.3-0.6-0.6-0.8-1.1c-0.2-0.4-0.3-0.9-0.3-1.5
			c0-0.6,0.1-1.1,0.3-1.5c0.2-0.5,0.5-0.9,1-1.2c0.4-0.3,0.9-0.6,1.5-0.8c0.6-0.2,1.2-0.3,2-0.3c1,0,1.9,0.1,2.7,0.4
			c0.8,0.2,1.5,0.6,2.1,1l-1.6,2.6c-0.5-0.4-1.1-0.6-1.6-0.8c-0.5-0.2-1.1-0.3-1.7-0.3c-0.5,0-0.8,0.1-1,0.2
			c-0.2,0.1-0.2,0.3-0.2,0.5c0,0.1,0,0.2,0.1,0.3c0.1,0.1,0.2,0.2,0.3,0.2c0.1,0.1,0.3,0.1,0.6,0.2c0.3,0.1,0.6,0.2,1,0.2
			c0.8,0.2,1.4,0.4,2,0.6c0.6,0.2,1,0.5,1.4,0.8c0.4,0.3,0.6,0.7,0.8,1.1c0.2,0.4,0.3,0.9,0.3,1.5C129.2,9.3,129,9.9,128.8,10.4z"/>
		<path fill="#FFFFFF" d="M140.2,10.4c-0.2,0.5-0.6,0.9-1,1.2c-0.4,0.3-1,0.5-1.6,0.7c-0.6,0.2-1.3,0.2-2,0.2c-1,0-1.9-0.1-2.8-0.4
			c-0.9-0.3-1.6-0.6-2.3-1l1.6-2.6c0.2,0.1,0.5,0.3,0.8,0.4c0.3,0.1,0.6,0.3,0.9,0.4c0.3,0.1,0.6,0.2,1,0.3c0.3,0.1,0.6,0.1,0.9,0.1
			c0.6,0,1-0.1,1.2-0.2c0.2-0.1,0.3-0.3,0.3-0.6c0-0.1,0-0.2-0.1-0.3c-0.1-0.1-0.2-0.2-0.3-0.3c-0.2-0.1-0.4-0.2-0.6-0.3
			c-0.3-0.1-0.6-0.2-1-0.3c-0.7-0.2-1.4-0.4-1.9-0.5c-0.5-0.2-1-0.4-1.3-0.7c-0.4-0.3-0.6-0.6-0.8-1.1c-0.2-0.4-0.3-0.9-0.3-1.5
			c0-0.6,0.1-1.1,0.3-1.5c0.2-0.5,0.5-0.9,1-1.2c0.4-0.3,0.9-0.6,1.5-0.8c0.6-0.2,1.2-0.3,2-0.3c1,0,1.9,0.1,2.7,0.4
			c0.8,0.2,1.5,0.6,2.1,1l-1.6,2.6c-0.5-0.4-1.1-0.6-1.6-0.8c-0.5-0.2-1.1-0.3-1.7-0.3c-0.5,0-0.8,0.1-1,0.2
			c-0.2,0.1-0.2,0.3-0.2,0.5c0,0.1,0,0.2,0.1,0.3c0.1,0.1,0.2,0.2,0.3,0.2c0.1,0.1,0.4,0.1,0.6,0.2c0.3,0.1,0.6,0.2,1,0.2
			c0.8,0.2,1.4,0.4,2,0.6c0.5,0.2,1,0.5,1.4,0.8c0.4,0.3,0.6,0.7,0.8,1.1c0.2,0.4,0.3,0.9,0.3,1.5C140.6,9.3,140.4,9.9,140.2,10.4z"
			/>
	</g>
	<g>
		<g>
			<path fill="#FFFFFF" d="M6.5,12.3l-2-4H3.2v4H0V0.3h5.3c0.7,0,1.3,0.1,1.9,0.2c0.6,0.1,1.1,0.4,1.5,0.7c0.4,0.3,0.7,0.7,0.9,1.2
				C9.9,2.9,10,3.5,10,4.2c0,0.9-0.2,1.6-0.6,2.2C9,7,8.5,7.4,7.8,7.7l2.4,4.6H6.5z M6.4,3.4C6.2,3.1,5.8,3,5.2,3h-2v2.6h2
				c0.5,0,0.9-0.1,1.2-0.3c0.2-0.2,0.3-0.6,0.3-1C6.7,3.9,6.6,3.6,6.4,3.4z"/>
		</g>
		<g>
			<path fill="#FFFFFF" d="M12.2,12.3V0.3h9.1v2.8h-5.9v1.6H19v2.7h-3.5v2h6v2.8H12.2z"/>
		</g>
		<g>
			<path fill="#FFFFFF" d="M33.5,9.1c-0.3,0.8-0.7,1.4-1.2,1.9c-0.5,0.5-1.2,0.8-2,1c-0.8,0.2-1.7,0.3-2.8,0.3h-3.9V0.3h4.2
				c0.9,0,1.8,0.1,2.5,0.3c0.8,0.2,1.4,0.5,1.9,1c0.5,0.5,0.9,1.1,1.2,1.8c0.3,0.7,0.4,1.7,0.4,2.8C33.9,7.3,33.8,8.3,33.5,9.1z
				 M30.4,4.9c-0.1-0.4-0.3-0.7-0.5-1c-0.2-0.2-0.5-0.4-0.9-0.6c-0.4-0.1-0.8-0.2-1.3-0.2h-0.8v6.3h0.7c0.5,0,0.9-0.1,1.3-0.2
				c0.4-0.1,0.7-0.3,0.9-0.5c0.2-0.2,0.4-0.6,0.5-1c0.1-0.4,0.2-0.9,0.2-1.5C30.5,5.7,30.5,5.3,30.4,4.9z"/>
		</g>
		<g>
			<path fill="#FFFFFF" d="M48,12.3V7.6h-3.7v4.7h-3.4V0.3h3.4v4.4H48V0.3h3.4v11.9H48z"/>
		</g>
		<g>
			<path fill="#FFFFFF" d="M61.5,12.3l-0.6-2.1h-3.6l-0.6,2.1h-3.5l4.3-11.9h3.3l4.3,11.9H61.5z M59.8,6.7c-0.1-0.4-0.2-0.7-0.3-1
				c-0.1-0.3-0.2-0.5-0.2-0.8c-0.1-0.2-0.1-0.4-0.2-0.6c0-0.2-0.1-0.4-0.1-0.6C59,4,59,4.2,58.9,4.4c0,0.2-0.1,0.4-0.2,0.6
				c-0.1,0.2-0.1,0.5-0.2,0.8c-0.1,0.3-0.2,0.6-0.3,1l-0.2,0.8h2L59.8,6.7z"/>
		</g>
		<g>
			<path fill="#FFFFFF" d="M71.3,3.2v9.1H68V3.2h-3.3V0.3h10v2.9H71.3z"/>
		</g>
	</g>
	<g>
		<path fill="#FFFFFF" d="M78.6,2c-0.1,0.1-0.1,0.3-0.3,0.4c-0.1,0.1-0.2,0.2-0.4,0.3c-0.1,0.1-0.3,0.1-0.5,0.1
			c-0.2,0-0.3,0-0.5-0.1c-0.1-0.1-0.3-0.1-0.4-0.3c-0.1-0.1-0.2-0.2-0.3-0.4c-0.1-0.1-0.1-0.3-0.1-0.5c0-0.2,0-0.3,0.1-0.5
			c0.1-0.1,0.1-0.3,0.3-0.4c0.1-0.1,0.2-0.2,0.4-0.3c0.1-0.1,0.3-0.1,0.5-0.1c0.2,0,0.3,0,0.5,0.1c0.1,0.1,0.3,0.1,0.4,0.3
			c0.1,0.1,0.2,0.2,0.3,0.4c0.1,0.1,0.1,0.3,0.1,0.5C78.7,1.7,78.6,1.8,78.6,2z M78.4,1.1c0-0.1-0.1-0.2-0.2-0.3
			c-0.1-0.1-0.2-0.2-0.3-0.2c-0.1,0-0.3-0.1-0.4-0.1c-0.1,0-0.3,0-0.4,0.1c-0.1,0.1-0.2,0.1-0.3,0.2c-0.1,0.1-0.2,0.2-0.2,0.3
			c-0.1,0.1-0.1,0.3-0.1,0.4c0,0.1,0,0.3,0.1,0.4c0.1,0.1,0.1,0.2,0.2,0.3c0.1,0.1,0.2,0.2,0.3,0.2c0.1,0,0.3,0.1,0.4,0.1
			c0.1,0,0.3,0,0.4-0.1c0.1-0.1,0.2-0.1,0.3-0.2c0.1-0.1,0.2-0.2,0.2-0.3c0-0.1,0.1-0.3,0.1-0.4C78.5,1.4,78.4,1.2,78.4,1.1z
			 M77.9,1.5c-0.1,0.1-0.1,0.1-0.2,0.1L78,2.1h-0.3l-0.3-0.5h-0.3v0.5H77V0.8h0.6c0.1,0,0.1,0,0.2,0c0.1,0,0.1,0,0.1,0.1
			C77.9,1,77.9,1,78,1c0,0,0,0.1,0,0.2C78,1.3,78,1.4,77.9,1.5z M77.7,1.1c0,0-0.1,0-0.1,0h-0.3v0.4h0.3c0.1,0,0.1,0,0.1,0
			c0,0,0.1-0.1,0.1-0.1C77.8,1.2,77.8,1.1,77.7,1.1z"/>
	</g>
	<g>
		<path fill="#FFFFFF" d="M145.1,2c-0.1,0.1-0.1,0.3-0.3,0.4c-0.1,0.1-0.2,0.2-0.4,0.3c-0.1,0.1-0.3,0.1-0.5,0.1
			c-0.2,0-0.3,0-0.5-0.1c-0.1-0.1-0.3-0.1-0.4-0.3c-0.1-0.1-0.2-0.2-0.3-0.4c-0.1-0.1-0.1-0.3-0.1-0.5c0-0.2,0-0.3,0.1-0.5
			c0.1-0.1,0.1-0.3,0.3-0.4c0.1-0.1,0.2-0.2,0.4-0.3c0.1-0.1,0.3-0.1,0.5-0.1c0.2,0,0.3,0,0.5,0.1c0.1,0.1,0.3,0.1,0.4,0.3
			c0.1,0.1,0.2,0.2,0.3,0.4c0.1,0.1,0.1,0.3,0.1,0.5C145.2,1.7,145.2,1.8,145.1,2z M144.9,1.1c0-0.1-0.1-0.2-0.2-0.3
			c-0.1-0.1-0.2-0.2-0.3-0.2c-0.1,0-0.3-0.1-0.4-0.1c-0.1,0-0.3,0-0.4,0.1c-0.1,0.1-0.2,0.1-0.3,0.2c-0.1,0.1-0.2,0.2-0.2,0.3
			c0,0.1-0.1,0.3-0.1,0.4c0,0.1,0,0.3,0.1,0.4c0.1,0.1,0.1,0.2,0.2,0.3c0.1,0.1,0.2,0.2,0.3,0.2c0.1,0,0.3,0.1,0.4,0.1
			c0.1,0,0.3,0,0.4-0.1c0.1-0.1,0.2-0.1,0.3-0.2c0.1-0.1,0.2-0.2,0.2-0.3c0-0.1,0.1-0.3,0.1-0.4C145,1.4,145,1.2,144.9,1.1z
			 M144.5,1.5c0,0.1-0.1,0.1-0.2,0.1l0.3,0.5h-0.3L144,1.6h-0.3v0.5h-0.2V0.8h0.6c0.1,0,0.1,0,0.2,0c0.1,0,0.1,0,0.1,0.1
			c0,0,0.1,0.1,0.1,0.1c0,0,0,0.1,0,0.2C144.5,1.3,144.5,1.4,144.5,1.5z M144.3,1.1c0,0-0.1,0-0.1,0h-0.3v0.4h0.3c0.1,0,0.1,0,0.1,0
			c0,0,0.1-0.1,0.1-0.1C144.3,1.2,144.3,1.1,144.3,1.1z"/>
	</g>
	<g>
		<path fill="#FFFFFF" d="M159.8,12.3V7.8c0-0.2,0-0.4,0-0.6c0-0.3,0-0.5,0-0.8s0-0.5,0-0.7c0-0.2,0-0.4,0-0.5
			c-0.1,0.2-0.2,0.5-0.4,0.9c-0.2,0.4-0.3,0.7-0.5,1.1l-2.5,5.4l-2.4-5.4c-0.2-0.3-0.3-0.7-0.5-1.1c-0.2-0.4-0.3-0.7-0.4-0.9
			c0,0.1,0,0.3,0,0.5s0,0.5,0,0.7s0,0.5,0,0.8c0,0.3,0,0.5,0,0.6v4.4h-2.4V0.2h2.3l2.5,5.5c0.1,0.2,0.2,0.4,0.2,0.5
			c0.1,0.2,0.2,0.4,0.2,0.6c0.1,0.2,0.1,0.4,0.2,0.5s0.1,0.3,0.1,0.4c0.1-0.2,0.2-0.5,0.3-0.9s0.3-0.8,0.5-1.1l2.4-5.5h2.4v12.1
			H159.8z"/>
		<path fill="#FFFFFF" d="M174.9,8.8c-0.3,0.8-0.6,1.4-1.1,2c-0.5,0.5-1,0.9-1.7,1.2c-0.7,0.3-1.4,0.4-2.2,0.4
			c-0.8,0-1.5-0.1-2.2-0.4c-0.6-0.3-1.2-0.7-1.7-1.2c-0.5-0.5-0.8-1.2-1.1-2c-0.3-0.8-0.4-1.6-0.4-2.6c0-1,0.1-1.9,0.4-2.6
			c0.3-0.8,0.6-1.4,1.1-2c0.5-0.5,1-0.9,1.7-1.2c0.7-0.3,1.4-0.4,2.2-0.4c0.8,0,1.5,0.1,2.1,0.4c0.6,0.3,1.2,0.7,1.7,1.2
			c0.5,0.5,0.8,1.2,1.1,2s0.4,1.6,0.4,2.6C175.3,7.2,175.2,8.1,174.9,8.8z M172,3.4c-0.5-0.7-1.2-1-2.1-1s-1.5,0.3-2,1
			c-0.5,0.7-0.8,1.6-0.8,2.8c0,1.2,0.3,2.2,0.8,2.8c0.5,0.7,1.2,1,2.1,1c0.9,0,1.5-0.3,2-1c0.5-0.7,0.8-1.6,0.8-2.8
			C172.8,5,172.5,4.1,172,3.4z"/>
		<path fill="#FFFFFF" d="M187.2,10.1c-0.2,0.5-0.5,0.9-0.9,1.2c-0.4,0.3-0.8,0.6-1.4,0.7c-0.5,0.2-1.1,0.2-1.8,0.2h-5.5V0.2h5.5
			c1.2,0,2.1,0.3,2.8,0.8c0.7,0.5,1,1.3,1,2.4c0,0.5-0.1,1-0.3,1.4c-0.2,0.4-0.5,0.7-0.9,1c0.5,0.2,0.9,0.5,1.2,1
			c0.3,0.4,0.5,1,0.5,1.7C187.5,9,187.4,9.6,187.2,10.1z M184.3,2.7c-0.2-0.2-0.6-0.3-1.1-0.3h-3.1v2.3h3.2c0.5,0,0.9-0.1,1.1-0.3
			c0.2-0.2,0.3-0.5,0.3-0.8C184.7,3.2,184.5,2.9,184.3,2.7z M183.3,6.9h-3.2V10h3.2c0.6,0,1-0.1,1.3-0.4c0.3-0.3,0.4-0.7,0.4-1.1
			C185,7.4,184.5,6.9,183.3,6.9z"/>
		<path fill="#FFFFFF" d="M190.2,12.3V0.2h2.4v12.1H190.2z"/>
		<path fill="#FFFFFF" d="M195.9,12.3V0.2h2.4v9.7h6.1v2.4H195.9z"/>
		<path fill="#FFFFFF" d="M206.6,12.3V0.2h8.4v2.4h-6v2.1h3.5V7H209v2.9h6.2v2.4H206.6z"/>
		<path fill="#FFFFFF" d="M230.8,12.3l-0.9-2.7h-4.4l-0.9,2.7h-2.6l4.6-12.1h2.3l4.6,12.1H230.8z M228.3,5.1c-0.1-0.4-0.2-0.7-0.4-1
			c-0.1-0.3-0.2-0.6-0.2-0.8c-0.1,0.2-0.1,0.5-0.2,0.8c-0.1,0.3-0.2,0.7-0.4,1l-0.8,2.2h2.8L228.3,5.1z"/>
		<path fill="#FFFFFF" d="M244.8,5.8c-0.2,0.5-0.5,0.9-0.9,1.2c-0.4,0.3-0.9,0.6-1.4,0.7C242,7.9,241.4,8,240.8,8h-2.7v4.3h-2.4V0.2
			h5.3c0.6,0,1.1,0.1,1.6,0.2c0.5,0.2,0.9,0.4,1.3,0.7c0.4,0.3,0.7,0.7,0.9,1.2c0.2,0.5,0.3,1,0.3,1.7C245.2,4.7,245,5.3,244.8,5.8z
			 M242.2,2.9c-0.3-0.2-0.7-0.4-1.3-0.4h-2.8v3.1h2.8c1.2,0,1.7-0.5,1.7-1.6C242.7,3.5,242.5,3.2,242.2,2.9z"/>
		<path fill="#FFFFFF" d="M256.6,5.8c-0.2,0.5-0.5,0.9-0.9,1.2c-0.4,0.3-0.9,0.6-1.4,0.7c-0.5,0.1-1.1,0.2-1.7,0.2h-2.7v4.3h-2.4
			V0.2h5.3c0.6,0,1.1,0.1,1.6,0.2c0.5,0.2,0.9,0.4,1.3,0.7c0.4,0.3,0.7,0.7,0.9,1.2c0.2,0.5,0.3,1,0.3,1.7
			C256.9,4.7,256.8,5.3,256.6,5.8z M253.9,2.9c-0.3-0.2-0.7-0.4-1.3-0.4h-2.8v3.1h2.8c1.2,0,1.7-0.5,1.7-1.6
			C254.4,3.5,254.3,3.2,253.9,2.9z"/>
		<path fill="#FFFFFF" d="M259.2,12.3V0.2h2.4v9.7h6.1v2.4H259.2z"/>
		<path fill="#FFFFFF" d="M270.1,12.3V0.2h2.4v12.1H270.1z"/>
		<path fill="#FFFFFF" d="M282.7,3.7c-0.2-0.4-0.5-0.7-0.9-1c-0.4-0.2-0.8-0.3-1.4-0.3c-0.4,0-0.9,0.1-1.2,0.3s-0.7,0.5-0.9,0.8
			c-0.2,0.3-0.4,0.7-0.6,1.2c-0.1,0.5-0.2,1-0.2,1.5c0,0.5,0.1,1,0.2,1.5c0.1,0.5,0.3,0.9,0.6,1.2c0.2,0.3,0.5,0.6,0.9,0.8
			s0.8,0.3,1.2,0.3c0.6,0,1-0.1,1.4-0.4c0.4-0.2,0.7-0.6,1-1.2l2,1.2c-0.4,0.9-1,1.5-1.7,2s-1.6,0.7-2.8,0.7c-0.8,0-1.5-0.1-2.2-0.4
			s-1.2-0.7-1.7-1.3s-0.8-1.2-1.1-2c-0.3-0.8-0.4-1.6-0.4-2.6c0-0.9,0.1-1.8,0.4-2.5c0.3-0.8,0.6-1.4,1.1-2s1-1,1.7-1.3
			c0.7-0.3,1.4-0.5,2.2-0.5c0.6,0,1.1,0.1,1.5,0.2c0.5,0.1,0.9,0.3,1.2,0.6c0.4,0.2,0.7,0.5,0.9,0.8c0.3,0.3,0.5,0.7,0.7,1.1
			L282.7,3.7z"/>
		<path fill="#FFFFFF" d="M295.1,12.3l-0.9-2.7h-4.4l-0.9,2.7h-2.6l4.6-12.1h2.3l4.6,12.1H295.1z M292.5,5.1c-0.1-0.4-0.2-0.7-0.4-1
			c-0.1-0.3-0.2-0.6-0.2-0.8c-0.1,0.2-0.1,0.5-0.2,0.8c-0.1,0.3-0.2,0.7-0.4,1l-0.8,2.2h2.8L292.5,5.1z"/>
		<path fill="#FFFFFF" d="M303.4,2.6v9.7H301V2.6h-3.5V0.2h9.3v2.4H303.4z"/>
		<path fill="#FFFFFF" d="M309.4,12.3V0.2h2.4v12.1H309.4z"/>
		<path fill="#FFFFFF" d="M324.7,8.8c-0.3,0.8-0.6,1.4-1.1,2s-1,0.9-1.7,1.2c-0.7,0.3-1.4,0.4-2.2,0.4c-0.8,0-1.5-0.1-2.2-0.4
			c-0.7-0.3-1.2-0.7-1.7-1.2s-0.8-1.2-1.1-2c-0.3-0.8-0.4-1.6-0.4-2.6c0-1,0.1-1.9,0.4-2.6c0.3-0.8,0.6-1.4,1.1-2
			c0.5-0.5,1-0.9,1.7-1.2c0.7-0.3,1.4-0.4,2.2-0.4c0.8,0,1.5,0.1,2.1,0.4c0.6,0.3,1.2,0.7,1.7,1.2s0.8,1.2,1.1,2
			c0.3,0.8,0.4,1.6,0.4,2.6C325.1,7.2,325,8.1,324.7,8.8z M321.8,3.4c-0.5-0.7-1.2-1-2.1-1c-0.9,0-1.5,0.3-2,1
			c-0.5,0.7-0.8,1.6-0.8,2.8c0,1.2,0.3,2.2,0.8,2.8c0.5,0.7,1.2,1,2.1,1s1.5-0.3,2-1c0.5-0.7,0.8-1.6,0.8-2.8
			C322.6,5,322.3,4.1,321.8,3.4z"/>
		<path fill="#FFFFFF" d="M335.2,12.3l-4.4-6.6c-0.2-0.2-0.3-0.5-0.5-0.7c-0.2-0.3-0.3-0.5-0.4-0.6c0,0.1,0,0.3,0,0.5
			c0,0.2,0,0.5,0,0.7c0,0.3,0,0.5,0,0.8c0,0.3,0,0.5,0,0.6v5.3h-2.4V0.2h2.3l4.3,6.4c0.1,0.2,0.3,0.5,0.5,0.7
			c0.2,0.3,0.3,0.5,0.4,0.6c0-0.1,0-0.3,0-0.5c0-0.2,0-0.5,0-0.7c0-0.3,0-0.5,0-0.8c0-0.3,0-0.5,0-0.6V0.2h2.4v12.1H335.2z"/>
		<path fill="#FFFFFF" d="M354.5,5.8c-0.2,0.5-0.5,0.9-0.9,1.2c-0.4,0.3-0.9,0.6-1.4,0.7c-0.5,0.1-1.1,0.2-1.7,0.2h-2.7v4.3h-2.4
			V0.2h5.3c0.6,0,1.1,0.1,1.6,0.2c0.5,0.2,0.9,0.4,1.3,0.7c0.4,0.3,0.7,0.7,0.9,1.2c0.2,0.5,0.3,1,0.3,1.7
			C354.9,4.7,354.7,5.3,354.5,5.8z M351.9,2.9c-0.3-0.2-0.7-0.4-1.3-0.4h-2.8v3.1h2.8c1.2,0,1.7-0.5,1.7-1.6
			C352.4,3.5,352.2,3.2,351.9,2.9z"/>
		<path fill="#FFFFFF" d="M357.1,12.3V0.2h2.4v9.7h6.1v2.4H357.1z"/>
		<path fill="#FFFFFF" d="M375.9,12.3l-0.9-2.7h-4.4l-0.9,2.7H367l4.6-12.1h2.3l4.6,12.1H375.9z M373.3,5.1c-0.1-0.4-0.2-0.7-0.4-1
			c-0.1-0.3-0.2-0.6-0.2-0.8c-0.1,0.2-0.1,0.5-0.2,0.8c-0.1,0.3-0.2,0.7-0.4,1l-0.8,2.2h2.8L373.3,5.1z"/>
		<path fill="#FFFFFF" d="M384.2,2.6v9.7h-2.4V2.6h-3.5V0.2h9.3v2.4H384.2z"/>
		<path fill="#FFFFFF" d="M392.5,2.6v2.3h3.6v2.4h-3.6v5.1h-2.4V0.2h8.6v2.4H392.5z"/>
		<path fill="#FFFFFF" d="M409.8,8.8c-0.3,0.8-0.6,1.4-1.1,2s-1,0.9-1.7,1.2c-0.7,0.3-1.4,0.4-2.2,0.4c-0.8,0-1.5-0.1-2.2-0.4
			c-0.7-0.3-1.2-0.7-1.7-1.2s-0.8-1.2-1.1-2c-0.3-0.8-0.4-1.6-0.4-2.6c0-1,0.1-1.9,0.4-2.6c0.3-0.8,0.6-1.4,1.1-2
			c0.5-0.5,1-0.9,1.7-1.2c0.7-0.3,1.4-0.4,2.2-0.4c0.8,0,1.5,0.1,2.1,0.4c0.6,0.3,1.2,0.7,1.7,1.2s0.8,1.2,1.1,2
			c0.3,0.8,0.4,1.6,0.4,2.6C410.2,7.2,410.1,8.1,409.8,8.8z M407,3.4c-0.5-0.7-1.2-1-2.1-1c-0.9,0-1.5,0.3-2,1
			c-0.5,0.7-0.8,1.6-0.8,2.8c0,1.2,0.3,2.2,0.8,2.8c0.5,0.7,1.2,1,2.1,1s1.5-0.3,2-1c0.5-0.7,0.8-1.6,0.8-2.8
			C407.7,5,407.5,4.1,407,3.4z"/>
		<path fill="#FFFFFF" d="M419.7,12.3l-2.2-4.3h-2.4v4.3h-2.4V0.2h5.6c0.6,0,1.1,0.1,1.6,0.2c0.5,0.2,0.9,0.4,1.3,0.7
			c0.4,0.3,0.7,0.7,0.9,1.2s0.3,1,0.3,1.7c0,0.9-0.2,1.7-0.6,2.2c-0.4,0.6-1,1-1.7,1.3l2.3,4.7H419.7z M419.5,2.9
			c-0.3-0.2-0.7-0.4-1.3-0.4h-3.2v3.1h3.2c1.2,0,1.7-0.5,1.7-1.6C420,3.5,419.8,3.1,419.5,2.9z"/>
		<path fill="#FFFFFF" d="M433.9,12.3V7.8c0-0.2,0-0.4,0-0.6c0-0.3,0-0.5,0-0.8s0-0.5,0-0.7s0-0.4,0-0.5c-0.1,0.2-0.2,0.5-0.4,0.9
			c-0.2,0.4-0.3,0.7-0.5,1.1l-2.5,5.4l-2.4-5.4c-0.2-0.3-0.3-0.7-0.5-1.1c-0.2-0.4-0.3-0.7-0.4-0.9c0,0.1,0,0.3,0,0.5s0,0.5,0,0.7
			s0,0.5,0,0.8c0,0.3,0,0.5,0,0.6v4.4H425V0.2h2.3l2.5,5.5c0.1,0.2,0.2,0.4,0.2,0.5c0.1,0.2,0.2,0.4,0.2,0.6
			c0.1,0.2,0.1,0.4,0.2,0.5s0.1,0.3,0.1,0.4c0.1-0.2,0.2-0.5,0.3-0.9c0.2-0.4,0.3-0.8,0.5-1.1l2.4-5.5h2.4v12.1H433.9z"/>
	</g>
</g>
</svg>
